<svg xmlns="http://www.w3.org/2000/svg" viewBox="0 0 512 512" width="512" height="512">
  <defs>
    <linearGradient id="bg" x1="0%" y1="0%" x2="100%" y2="100%">
      <stop offset="0%" stop-color="#EE0000"/>
      <stop offset="100%" stop-color="#A30000"/>
    </linearGradient>
  </defs>
  <rect width="512" height="512" rx="80" fill="url(#bg)"/>
  <!-- Face circle -->
  <circle cx="256" cy="230" r="120" fill="none" stroke="#FFFFFF" stroke-width="14" opacity="0.9"/>
  <!-- Left eye -->
  <circle cx="216" cy="210" r="14" fill="#FFFFFF"/>
  <!-- Right eye -->
  <circle cx="296" cy="210" r="14" fill="#FFFFFF"/>
  <!-- Smile -->
  <path d="M216 255 Q256 295 296 255" fill="none" stroke="#FFFFFF" stroke-width="10" stroke-linecap="round"/>
  <!-- Scan frame corners -->
  <g stroke="#F4C145" stroke-width="12" stroke-linecap="round" fill="none">
    <path d="M110 180 L110 120 Q110 90 140 90 L180 90"/>
    <path d="M332 90 L372 90 Q402 90 402 120 L402 180"/>
    <path d="M110 330 L110 370 Q110 400 140 400 L180 400"/>
    <path d="M332 400 L372 400 Q402 400 402 370 L402 330"/>
  </g>
  <!-- Scan line -->
  <rect x="130" y="310" width="252" height="4" rx="2" fill="#F4C145" opacity="0.7"/>
  <!-- Neural network dots -->
  <circle cx="256" cy="440" r="6" fill="#FFFFFF" opacity="0.5"/>
  <circle cx="226" cy="455" r="4" fill="#FFFFFF" opacity="0.4"/>
  <circle cx="286" cy="455" r="4" fill="#FFFFFF" opacity="0.4"/>
  <circle cx="206" cy="465" r="3" fill="#FFFFFF" opacity="0.3"/>
  <circle cx="306" cy="465" r="3" fill="#FFFFFF" opacity="0.3"/>
  <!-- Connection lines -->
  <line x1="256" y1="440" x2="226" y2="455" stroke="#FFFFFF" stroke-width="1.5" opacity="0.3"/>
  <line x1="256" y1="440" x2="286" y2="455" stroke="#FFFFFF" stroke-width="1.5" opacity="0.3"/>
  <line x1="226" y1="455" x2="206" y2="465" stroke="#FFFFFF" stroke-width="1.5" opacity="0.2"/>
  <line x1="286" y1="455" x2="306" y2="465" stroke="#FFFFFF" stroke-width="1.5" opacity="0.2"/>
</svg>
