<svg xmlns="http://www.w3.org/2000/svg" viewBox="0 0 32 32" width="32" height="32">
  <rect width="32" height="32" rx="6" fill="#EE0000"/>
  <circle cx="16" cy="14" r="8" fill="none" stroke="#FFF" stroke-width="1.5"/>
  <circle cx="13.5" cy="13" r="1.2" fill="#FFF"/>
  <circle cx="18.5" cy="13" r="1.2" fill="#FFF"/>
  <path d="M13.5 16.5 Q16 19 18.5 16.5" fill="none" stroke="#FFF" stroke-width="1" stroke-linecap="round"/>
  <g stroke="#F4C145" stroke-width="1.2" stroke-linecap="round" fill="none">
    <path d="M6 11 L6 7 Q6 5 8 5 L11 5"/>
    <path d="M21 5 L24 5 Q26 5 26 7 L26 11"/>
    <path d="M6 21 L6 24 Q6 26 8 26 L11 26"/>
    <path d="M21 26 L24 26 Q26 26 26 24 L26 21"/>
  </g>
</svg>
